<?xml version="1.0" encoding="UTF-8" standalone="no"?>
<!DOCTYPE svg PUBLIC "-//W3C//DTD SVG 1.1//EN" "http://www.w3.org/Graphics/SVG/1.1/DTD/svg11.dtd">
<svg width="100%" height="100%" viewBox="0 0 1024 1024" version="1.1" xmlns="http://www.w3.org/2000/svg" xmlns:xlink="http://www.w3.org/1999/xlink" xml:space="preserve" xmlns:serif="http://www.serif.com/" style="fill-rule:evenodd;clip-rule:evenodd;stroke-linejoin:round;stroke-miterlimit:2;">
    <rect id="Artboard1" x="0" y="0" width="1024" height="1024" style="fill:none;"/>
    <g id="Artboard11" serif:id="Artboard1">
        <g transform="matrix(7.01108,0,0,7.01108,739.26,84.9978)">
            <path d="M10.614,17.796C10.277,18.568 9.208,18.568 8.87,17.796L7.993,15.785C7.212,13.997 5.806,12.573 4.052,11.794L1.637,10.722C0.869,10.381 0.869,9.264 1.637,8.923L3.977,7.884C5.776,7.086 7.207,5.609 7.974,3.759L8.863,1.617C9.193,0.822 10.292,0.822 10.622,1.617L11.51,3.759C12.278,5.609 13.709,7.086 15.508,7.884L17.848,8.923C18.616,9.264 18.616,10.381 17.848,10.722L15.433,11.794C13.679,12.573 12.273,13.997 11.492,15.785L10.614,17.796ZM19.401,22.69C19.221,23.104 18.647,23.104 18.467,22.69L18.22,22.124C17.78,21.116 16.987,20.312 15.998,19.873L15.238,19.535C14.827,19.353 14.827,18.755 15.238,18.572L15.956,18.253C16.97,17.803 17.777,16.97 18.209,15.927L18.463,15.316C18.639,14.89 19.228,14.89 19.405,15.316L19.659,15.927C20.091,16.97 20.898,17.803 21.912,18.253L22.63,18.572C23.041,18.755 23.041,19.353 22.63,19.535L21.87,19.873C20.881,20.312 20.088,21.116 19.648,22.124L19.401,22.69ZM-0.334,53.895C-0.334,53.895 20.057,47.245 22.93,62.711L22.93,95.842C22.93,95.842 23.84,112.698 7.086,114.332C7.086,114.332 -32.229,121.76 -46.073,120.68C-56.887,119.836 -63.257,121.096 -75.978,107.848C-75.978,107.848 -87.615,99.263 -87.594,81.439L-87.763,34.455C-87.763,34.455 -88.559,17.991 -68.137,17.861L-55.657,16.629C-55.657,16.629 -55.677,21.088 -50.831,20.995C-50.831,20.995 -46.961,20.409 -46.902,15.776L-21.521,13.571C-21.521,13.571 -9.569,12.041 -1.627,19.733C-1.627,19.733 19.819,35.198 18.885,50.496C18.885,50.496 12.748,48.205 8.84,48.598L8.996,36.946L-55.591,36.634L-55.601,65.377C-55.601,65.377 -58.597,66.095 -61.093,63.829L-60.988,32.169L-10.337,32.265L-10.337,27.154L-66.888,27.154L-66.888,61.163C-66.888,61.163 -79.075,56.65 -82.873,45.502C-82.873,45.502 -79.955,63.614 -62.742,68.128C-62.742,68.128 -51.787,75.069 -25.65,63.579C-25.65,63.579 -6.944,54.505 -0.334,53.895ZM-8.374,84.516C-7.517,83.625 -7.517,82.185 -8.34,81.294C-9.197,80.402 -10.568,80.402 -11.425,81.294L-25.275,95.692L-31.446,89.247C-32.303,88.356 -33.674,88.356 -34.531,89.247C-35.389,90.138 -35.389,91.578 -34.531,92.47L-26.852,100.526C-25.995,101.417 -24.624,101.417 -23.767,100.526L-8.374,84.516Z" style="fill:rgb(17,24,39);"/>
        </g>
    </g>
</svg>
